<?xml version="1.0" standalone="no"?><!DOCTYPE svg PUBLIC "-//W3C//DTD SVG 1.1//EN" "http://www.w3.org/Graphics/SVG/1.1/DTD/svg11.dtd">
<svg
        t="1735709051738" class="icon" viewBox="0 0 1024 1024" version="1.1" xmlns="http://www.w3.org/2000/svg"
        p-id="6858" width="200" height="200"><path d="M256.085333 298.645333L303.872 213.333333l-47.786667-85.333333 85.312 47.786667 85.333334-47.786667-47.786667 85.312 47.786667 85.312-85.312-47.786667-85.333334 47.808zM895.978667 128L800 181.76 704.021333 128l53.76 95.978667-53.76 95.978666 95.978667-53.76 95.978667 53.76-53.76-95.978666L895.978667 128z m-181.717334 319.936L277.418667 884.778667c-14.933333 14.933333-37.546667 14.933333-52.48 0l-85.738667-85.738667c-14.933333-14.933333-14.933333-37.546667 0-52.458667l436.842667-436.842666c14.933333-14.933333 37.546667-14.933333 52.458666 0l85.738667 85.738666c14.933333 14.933333 14.933333 37.546667 0.021333 52.458667z m-160.832 100.693333l-78.506666-78.485333L176.32 768.746667l78.485333 78.485333 298.624-298.602667z m123.712-122.858666l-78.485333-78.485334-89.578667 89.578667 78.058667 78.485333 90.005333-89.578666zM810.666667 602.368l-85.333334-47.765333 47.786667 85.312L725.333333 725.226667l85.333334-47.765334 85.312 47.786667-47.786667-85.312 47.786667-85.312L810.666667 602.368z" fill="#008aff" p-id="6859"></path></svg>