<?xml version="1.0" standalone="no"?><!DOCTYPE svg PUBLIC "-//W3C//DTD SVG 1.1//EN" "http://www.w3.org/Graphics/SVG/1.1/DTD/svg11.dtd"><svg t="1735996472115" class="icon" viewBox="0 0 1024 1024" version="1.1" xmlns="http://www.w3.org/2000/svg" p-id="21340" xmlns:xlink="http://www.w3.org/1999/xlink" width="200" height="200"><path d="M14.933333 512C14.933333 241.066667 234.666667 21.333333 505.6 21.333333s490.666667 219.733333 490.666667 490.666667-219.733333 490.666667-490.666667 490.666667C234.666667 1004.8 14.933333 785.066667 14.933333 512z" fill="#AE8CFF" p-id="21341"></path><path d="M546.133333 247.466667l-23.466666 8.533333 40.533333 123.733333c8.533333 27.733333 34.133333 44.8 64 44.8h130.133333c6.4 0 10.666667 2.133333 12.8 4.266667 2.133333 4.266667 4.266667 8.533333 4.266667 12.8 0 2.133333 0 4.266667-2.133333 6.4-2.133333 2.133333-2.133333 4.266667-6.4 6.4L661.333333 533.333333c-17.066667 12.8-27.733333 32-27.733333 53.333334 0 6.4 0 12.8 4.266667 21.333333l40.533333 123.733333v6.4c0 4.266667-2.133333 8.533333-6.4 12.8-4.266667 4.266667-8.533333 4.266667-12.8 4.266667-4.266667 0-6.4 0-10.666667-4.266667l-104.533333-76.8c-10.666667-8.533333-25.6-12.8-38.4-12.8-12.8 0-27.733333 4.266667-38.4 12.8L362.666667 750.933333c-4.266667 2.133333-6.4 4.266667-10.666667 4.266667s-8.533333-2.133333-12.8-4.266667c-4.266667-4.266667-6.4-8.533333-6.4-12.8v-6.4l40.533333-123.733333c2.133333-6.4 4.266667-12.8 4.266667-21.333333 0-21.333333-10.666667-40.533333-27.733333-53.333334l-104.533334-76.8-6.4-6.4c-2.133333-2.133333-2.133333-4.266667-2.133333-6.4 0-4.266667 2.133333-8.533333 4.266667-12.8 2.133333-4.266667 6.4-4.266667 12.8-4.266666H384c27.733333 0 53.333333-19.2 64-44.8l40.533333-123.733334c2.133333-4.266667 4.266667-6.4 6.4-8.533333 2.133333-2.133333 6.4-2.133333 10.666667-2.133333s6.4 2.133333 10.666667 2.133333c2.133333 2.133333 4.266667 4.266667 6.4 8.533333l23.466666-10.666666 23.466667-8.533334c-4.266667-14.933333-14.933333-25.6-25.6-34.133333-10.666667-8.533333-25.6-10.666667-38.4-10.666667-12.8 0-25.6 4.266667-38.4 10.666667-10.666667 8.533333-21.333333 19.2-25.6 34.133333L401.066667 362.666667c-2.133333 6.4-8.533333 12.8-17.066667 12.8h-128c-19.2 0-36.266667 8.533333-49.066667 21.333333-10.666667 12.8-17.066667 29.866667-17.066666 44.8 0 10.666667 2.133333 19.2 6.4 29.866667 4.266667 8.533333 10.666667 17.066667 21.333333 23.466666l104.533333 76.8c4.266667 4.266667 6.4 8.533333 6.4 14.933334v6.4l-40.533333 123.733333c-2.133333 6.4-4.266667 14.933333-4.266667 21.333333 0 19.2 8.533333 36.266667 21.333334 46.933334 12.8 10.666667 27.733333 19.2 46.933333 19.2 12.8 0 27.733333-4.266667 38.4-12.8l104.533333-76.8c2.133333-2.133333 6.4-4.266667 10.666667-4.266667s6.4 2.133333 10.666667 4.266667l104.533333 76.8c12.8 8.533333 25.6 12.8 38.4 12.8 17.066667 0 34.133333-6.4 46.933333-19.2 12.8-10.666667 21.333333-27.733333 21.333334-46.933334 0-6.4-2.133333-14.933333-4.266667-21.333333L682.666667 593.066667v-6.4c0-6.4 2.133333-10.666667 6.4-14.933334l104.533333-76.8c8.533333-6.4 17.066667-14.933333 21.333333-23.466666 4.266667-8.533333 6.4-19.2 6.4-29.866667 0-17.066667-6.4-34.133333-17.066666-44.8-10.666667-12.8-29.866667-21.333333-49.066667-21.333333h-130.133333c-8.533333 0-14.933333-4.266667-17.066667-12.8l-40.533333-123.733334-21.333334 8.533334z" fill="#FFFFFF" p-id="21342"></path></svg>