<?xml version="1.0" standalone="no"?><!DOCTYPE svg PUBLIC "-//W3C//DTD SVG 1.1//EN" "http://www.w3.org/Graphics/SVG/1.1/DTD/svg11.dtd">
<svg
        t="1735788924178" class="icon" viewBox="0 0 1024 1024" version="1.1" xmlns="http://www.w3.org/2000/svg"
        p-id="18775" width="200" height="200"><path d="M334.7456 114.39104c-110.75584 41.50272-202.4192 121.57952-259.03616 223.74912h181.89824c20.23424-103.49056 51.09248-176.6912 77.13792-223.74912zM492.07296 338.13504V82.86208c-38.82496 1.24416-76.30848 7.44448-112.36864 17.1264-27.49952 45.99296-63.10912 123.24864-85.56544 238.15168h197.93408v-0.00512zM939.648 338.14016c-55.7056-100.52096-144.58368-180.15744-252.87168-222.24384 25.8816 47.08864 56.28928 119.85408 76.32384 222.24384h176.54784zM641.5104 100.79744a498.944 498.944 0 0 0-112.8448-17.9968v255.34464h197.95968c-22.33344-114.26304-57.68704-191.26272-85.11488-237.34784zM706.6368 910.19776c108.7488-41.99936 198.05184-121.6768 253.61408-222.6176h-176.50176c-20.17792 103.4496-51.06176 176.04096-77.11232 222.6176zM549.52448 687.5904v254.60736c38.45632-1.69984 75.94496-7.05024 111.67744-16.96256 27.47904-45.24544 63.01184-122.5984 85.53472-237.63968h-197.21216zM97.08544 687.5904c56.69376 102.43072 148.39808 182.78912 259.54816 224.14848-26.20928-46.5152-57.49248-119.63392-77.88544-224.14848H97.08544zM401.77152 926.08c35.69152 9.48736 72.77568 15.54944 111.16032 16.78336v-255.27296H315.73504c22.67136 115.73248 58.48576 193.34656 86.03648 238.4896zM250.45504 619.76576V404.24448h-27.3408v169.20576L109.92128 404.24448h-29.25056v215.52128h27.3408V450.40128l113.19296 169.36448zM454.79424 429.68064v-25.43616H298.96704v215.52128h160.82432v-25.43616H327.48544v-73.36448h119.2192v-25.27744H327.48544V429.68064zM536.82688 619.76576h29.10208l45.71648-164.21888c1.96096-6.95296 4.06528-15.38048 6.32832-25.28256 0.67584 3.13344 2.92864 11.56608 6.76352 25.28256l45.4144 164.21888h27.4944L756.736 404.24448h-28.66688l-33.80736 138.48576c-4.41344 17.62816-7.99744 33.26976-10.73152 46.88384-3.4304-23.81312-9.02656-49.24416-16.768-76.288l-30.86336-109.08672h-34.39104l-41.02656 145.536c-0.9728 3.52768-4.21376 16.80384-9.70752 39.8336a727.2704 727.2704 0 0 0-9.1136-44.09344l-32.77312-141.27616h-29.25568l57.19552 215.5264zM936.22784 528.24064c-5.98016-8.8576-15.24224-16.19456-27.78624-21.96992-8.6272-3.9168-24.52992-8.50432-47.6928-13.75232-23.17824-5.23776-37.51936-10.36288-43.00288-15.35488-5.58592-5.00224-8.38144-11.37152-8.38144-19.11808 0-8.91392 3.94752-16.53248 11.83232-22.8608 7.88992-6.31808 20.45952-9.48224 37.71392-9.48224 16.55808 0 29.0816 3.4816 37.56032 10.43968 8.46848 6.95808 13.44512 17.24928 14.91456 30.86848l27.3408-2.05312c-0.49152-12.65152-4.02432-23.96672-10.58304-33.96096-6.56896-9.99424-15.94368-17.56672-28.14976-22.71232-12.20608-5.1456-26.28608-7.72096-42.25536-7.72096-14.51008 0-27.6992 2.45248-39.552 7.35232-11.85792 4.89984-20.87936 12.07808-27.04896 21.53472-6.17472 9.46176-9.25696 19.62496-9.25696 30.50496 0 9.90208 2.51392 18.8416 7.56736 26.82368 5.04832 7.99232 12.71296 14.67904 23.00416 20.06528 7.94112 4.21888 21.80096 8.69888 41.60512 13.45024 19.79392 4.75648 32.57856 8.26368 38.36928 10.51648 9.00096 3.42528 15.47776 7.65952 19.39968 12.71808 3.9168 5.0432 5.87776 10.94656 5.87776 17.70496 0 6.66624-2.03264 12.8256-6.10304 18.45248-4.0704 5.65248-10.2656 10.07104-18.59584 13.30176-8.32512 3.24096-17.93536 4.85376-28.81536 4.85376-12.24704 0-23.2704-2.12992-33.07008-6.38976-9.80992-4.26496-17.02912-9.85088-21.6832-16.75776-4.6592-6.912-7.61344-15.75936-8.89344-26.54208l-26.89536 2.36544c0.384 14.40256 4.33664 27.32032 11.8272 38.72768 7.50592 11.41248 17.8432 19.968 31.0272 25.6512s29.52192 8.5248 49.024 8.5248c15.38048 0 29.2352-2.82112 41.51808-8.45312 12.30336-5.62688 21.73952-13.52192 28.29824-23.65952 6.56896-10.1376 9.85088-20.95616 9.85088-32.41984-0.00512-11.56096-2.99008-21.77024-8.96512-30.64832z" fill="#f87054" p-id="18776"></path></svg>