<?xml version="1.0" standalone="no"?><!DOCTYPE svg PUBLIC "-//W3C//DTD SVG 1.1//EN" "http://www.w3.org/Graphics/SVG/1.1/DTD/svg11.dtd"><svg t="1735997345288" class="icon" viewBox="0 0 1024 1024" version="1.1" xmlns="http://www.w3.org/2000/svg" p-id="8957" xmlns:xlink="http://www.w3.org/1999/xlink" width="200" height="200"><path d="M512 0C229.226667 0 0 229.226667 0 512s229.226667 512 512 512 512-229.226667 512-512S794.773333 0 512 0z m-169.173333 694.357333h-48.256V329.642667h48.256v364.714666z m376.917333-110.72c-6.464 21.418667-14.784 39.104-24.896 53.12-10.112 14.016-21.162667 25.066667-33.194667 33.109334-12.032 8.042667-26.538667 14.144-43.541333 18.282666-17.002667 4.16-36.544 6.229333-58.602667 6.229334H427.946667V329.642667h125.632c28.373333 0 50.005333 1.728 64.917333 5.226666 20.906667 4.8 38.741333 13.504 53.504 26.112 19.242667 16.256 33.621333 37.034667 43.157333 62.314667 9.536 25.301333 14.293333 54.186667 14.293334 86.698667 0 27.712-3.221333 52.266667-9.685334 73.664zM615.253333 380.16c-12.949333-4.970667-33.749333-7.466667-62.442666-7.466667H476.16v278.656h77.866667c24.042667 0 42.922667-2.24 56.597333-6.72 13.674667-4.48 24.576-10.773333 32.704-18.922666 11.456-11.434667 20.352-26.816 26.752-46.144 6.378667-19.306667 9.578667-42.752 9.578667-70.293334 0-38.122667-6.250667-67.456-18.773334-87.936s-27.733333-34.197333-45.653333-41.173333z" fill="#69737C" p-id="8958"></path></svg>